<svg width="535" height="61" viewBox="0 0 535 61" fill="none" xmlns="http://www.w3.org/2000/svg">
<g clip-path="url(#clip0_174_42)">
<path d="M358.295 38.5415V18.1954H362.364V38.5415H358.295Z" fill="#F8F6F6"/>
<path d="M379.905 38.5415L370.642 24.102V38.5415H366.668V18.1954H371.618L380.111 31.6538V18.1954H384.078V38.5415H379.905Z" fill="#F8F6F6"/>
<path d="M401.74 38.5415L392.469 24.102V38.5415H388.493V18.1954H393.443L401.938 31.6538V18.1954H405.912V38.5415H401.74Z" fill="#F8F6F6"/>
<path d="M419.555 17.7562C421.662 17.7178 423.73 18.3235 425.482 19.492C427.234 20.6604 428.584 22.3355 429.352 24.2919C429.861 25.5904 430.101 26.9794 430.053 28.3737C430.071 29.7584 429.813 31.1329 429.294 32.4174C428.775 33.7019 428.005 34.8709 427.029 35.8564C426.053 36.8419 424.891 37.6244 423.609 38.1585C422.327 38.6926 420.952 38.9676 419.562 38.9676C418.173 38.9676 416.798 38.6926 415.516 38.1585C414.234 37.6244 413.072 36.8419 412.096 35.8564C411.12 34.8709 410.35 33.7019 409.831 32.4174C409.312 31.1329 409.053 29.7584 409.071 28.3737C409.025 26.9812 409.264 25.5939 409.772 24.2961C410.281 22.9982 411.048 21.817 412.029 20.824C413.009 19.831 414.182 19.047 415.476 18.5197C416.769 17.9923 418.157 17.7326 419.555 17.7562ZM419.555 35.1116C422.714 35.1116 425.938 32.9348 425.938 28.3458C425.938 23.7569 422.714 21.5696 419.555 21.5696C416.393 21.5696 413.187 23.7569 413.187 28.3458C413.187 32.9348 416.451 35.1221 419.555 35.1221V35.1116Z" fill="#F8F6F6"/>
<path d="M445.336 18.1954H449.555L441.979 38.5415H437.891L430.393 18.1954H434.732L440.058 33.3182L445.336 18.1954Z" fill="#F8F6F6"/>
<path d="M462.286 33.8881H453.999L452.301 38.5607H448.102L455.929 18.2146H460.533L468.306 38.5415H463.984L462.286 33.8881ZM455.321 30.2804H460.945L458.134 22.5892L455.321 30.2804Z" fill="#F8F6F6"/>
<path d="M476.875 21.953V38.5415H472.871V21.953H466.43V18.2146H483.307V21.953H476.875Z" fill="#F8F6F6"/>
<path d="M485.65 38.5415V18.1954H489.682V38.5415H485.65Z" fill="#F8F6F6"/>
<path d="M503.369 17.7562C504.769 17.7292 506.159 17.9865 507.456 18.5123C508.753 19.0382 509.929 19.8216 510.912 20.8149C511.895 21.8082 512.665 22.9906 513.175 24.2901C513.685 25.5896 513.925 26.979 513.879 28.3737C513.897 29.7584 513.639 31.1329 513.12 32.4174C512.6 33.7019 511.83 34.8709 510.854 35.8564C509.878 36.8419 508.716 37.6244 507.434 38.1585C506.152 38.6926 504.777 38.9676 503.388 38.9676C501.999 38.9676 500.623 38.6926 499.341 38.1585C498.06 37.6244 496.897 36.8419 495.921 35.8564C494.945 34.8709 494.175 33.7019 493.656 32.4174C493.137 31.1329 492.879 29.7584 492.897 28.3737C492.85 26.9818 493.088 25.5951 493.596 24.2978C494.104 23.0004 494.871 21.8196 495.851 20.8271C496.831 19.8346 498.002 19.0507 499.294 18.5228C500.587 17.9949 501.973 17.7341 503.369 17.7562ZM503.369 35.1116C506.537 35.1116 509.763 32.933 509.763 28.3458C509.763 23.7569 506.537 21.5696 503.369 21.5696C500.201 21.5696 497.012 23.7569 497.012 28.3458C497.012 32.9348 500.238 35.1221 503.369 35.1221V35.1116Z" fill="#F8F6F6"/>
<path d="M530.352 38.5415L521.079 24.102V38.5415H517.113V18.1954H522.063L530.558 31.6538V18.1954H534.524V38.5415H530.352Z" fill="#F8F6F6"/>
<path d="M15.0456 2.318C15.0456 2.69097 14.1836 4.392 13.0874 7.44897C11.5628 11.6531 10.7853 16.0901 10.7901 20.5605C10.7901 23.7935 11.5856 28.0373 12.2709 32.4015L10.3127 35.0279C7.20765 31.2425 5.25822 26.9812 5.25822 19.6263C5.25822 9.25283 11.5576 2.05657 14.7921 2.05657C14.9896 2.08446 15.0456 2.14023 15.0456 2.318ZM102.189 31.4202C102.537 32.2969 102.728 33.2258 102.752 34.1687C102.752 35.1029 102.376 36.1207 101.703 36.1207C101.224 36.1207 100.764 35.57 100.764 34.7195C100.954 33.5178 101.444 32.383 102.189 31.4202ZM12.8339 35.5717C13.3532 38.5171 13.6679 41.4974 13.771 44.4882C13.771 50.3285 11.8128 57.1692 8.44549 57.1134C7.1517 57.1134 6.05548 55.815 5.99778 53.5719C5.86665 46.2537 9.35464 40.0299 12.8339 35.5717ZM113.645 22.2737C112.38 24.1002 111.724 26.277 111.77 28.4957C111.77 33.6197 114.706 38.5067 120.397 38.5067C125.909 38.5067 129.772 34.1705 129.772 28.1227C129.809 27.2092 129.75 26.2943 129.593 25.3934C130.761 24.8423 131.852 24.1422 132.838 23.3107C133.307 22.8571 133.9 22.5516 134.543 22.4323C135.088 22.4323 135.33 22.8611 135.33 23.6558V35.6188C135.33 37.5708 135.95 38.4875 137.478 38.4875C138.123 38.4529 138.744 38.2322 139.264 37.8521C139.785 37.4721 140.184 36.9493 140.412 36.3473C142.439 32.1418 145.372 26.535 146.647 24.3948C146.956 23.9068 147.21 23.5338 147.378 23.5338C147.547 23.5338 147.754 23.722 147.754 24.4697V34.0031C147.754 36.6837 148.983 38.4509 151.663 38.4509C154.476 38.4509 155.882 35.7582 158.347 31.6085C158.453 31.4261 158.514 31.2212 158.525 31.0107C158.506 30.7763 158.399 30.5577 158.225 30.3985C158.051 30.2393 157.824 30.1511 157.588 30.1514C157.036 30.1514 156.726 30.7022 154.897 32.7134C154.523 33.0969 154.167 33.6459 153.481 33.6459C153.238 33.6459 153.062 33.3565 153.062 32.9836V22.326C153.062 19.4555 151.768 18.2965 150.116 18.2965C148.776 18.2965 147.668 18.849 146.507 20.5587C144.543 23.6576 142.74 26.8554 141.106 30.1392C140.975 30.3902 140.797 30.7562 140.674 30.7562C140.552 30.7562 140.498 30.568 140.498 30.1392V22.326C140.498 20.0725 139.888 18.2965 137.498 18.2965C135.106 18.2965 133.747 20.008 131.871 21.2873C130.94 22.0082 129.938 22.6347 128.882 23.1573C127.653 20.0446 125.385 18.4847 123.49 18.4847C123.062 18.4614 122.635 18.5272 122.235 18.6779C121.834 18.8285 121.47 19.0608 121.165 19.3598C120.859 19.6588 120.62 20.018 120.462 20.4144C120.304 20.8108 120.231 21.2357 120.246 21.662C120.236 22.5482 120.508 23.4148 121.023 24.1371C121.539 24.8593 122.271 25.3999 123.114 25.681C124.068 26.047 125.086 26.2108 126.105 26.1673C126.42 26.1795 126.735 26.1585 127.044 26.101C127.135 26.8104 127.16 27.5267 127.119 28.2413C127.119 31.232 125.336 34.214 122.037 34.214C118.738 34.214 116.582 30.8399 116.582 27.1014C116.491 24.6127 117.288 22.1725 118.83 20.2137C119.393 19.5967 119.815 19.2324 119.815 18.6625C119.815 18.3819 119.393 18.307 119.028 18.307C116.688 18.4561 114.411 19.1229 112.361 20.259C109.721 21.7295 107.256 23.4916 105.011 25.5119C103.905 23.0719 102.564 20.9335 101.882 19.2795C101.646 18.605 101.467 17.8294 100.943 17.8294C100.418 17.8294 100.324 18.2599 100.006 19.1017C98.9182 22.326 93.0769 31.774 91.7918 33.0725C91.6695 33.2502 91.4929 33.4385 91.4264 33.4385C91.36 33.4385 91.2289 33.3809 91.2289 33.008V22.3243C91.2289 19.4555 90.068 18.2983 88.4927 18.2983C87.1324 18.2983 85.9803 18.849 84.8736 20.5587C82.8577 23.6157 80.4012 28.0356 79.2473 30.2595C79.0602 30.6342 78.8819 30.7562 78.8172 30.7562C78.7508 30.7562 78.7036 30.5122 78.7036 30.1392V22.326C78.7036 19.4555 77.5409 18.2965 75.9482 18.2965C75.1812 18.283 74.4264 18.4888 73.7732 18.8898C73.1199 19.2907 72.5957 19.8699 72.2626 20.5587C69.7047 24.895 65.4195 31.5492 64.6135 32.6437C64.5279 32.7971 64.4006 32.9234 64.2463 33.008C64.124 33.008 64.0593 32.886 64.0593 32.5862V22.3086C64.0593 19.4398 62.8984 18.2808 61.3143 18.2808C59.1114 18.2808 57.891 20.3078 57.0833 21.5801C55.9783 23.3456 54.5149 25.7385 53.3348 27.9345C52.5288 29.402 51.8539 30.7388 51.6092 30.7388C51.3644 30.7388 51.4868 30.1863 51.4868 29.1493V20.991C55.4136 16.8647 57.6511 11.4241 57.7599 5.73749C57.7599 2.44 56.2965 0.608257 54.0097 0.608257C49.7716 0.608257 46.5092 7.20497 46.5092 15.0095V21.3552C44.6524 22.4927 42.5922 23.2609 40.4423 23.6175C39.2814 20.2049 36.8337 18.4307 34.8825 18.4865C34.4551 18.4626 34.0274 18.528 33.6268 18.6785C33.2262 18.829 32.8616 19.0612 32.5563 19.3603C32.2509 19.6594 32.0117 20.0188 31.8538 20.4155C31.6959 20.8121 31.6228 21.2373 31.6393 21.6637C31.6393 24.8967 34.8178 26.2422 37.631 26.2422H38.4282C38.5314 26.8888 38.5716 27.5424 38.5506 28.1959C38.5506 31.1867 36.7673 34.1687 33.4768 34.1687C30.1864 34.1687 28.0866 30.8399 28.0866 27.1032C27.992 24.6137 28.7897 22.1719 30.3368 20.2154C30.8893 19.5984 31.3316 19.0477 31.3316 18.6643C31.3316 18.2808 30.8893 18.3087 30.5239 18.3087C28.1985 18.3087 23.0234 21.4284 16.9391 27.5424C16.2918 22.8031 15.9036 18.0322 15.7764 13.2509C15.8271 9.59443 16.2537 5.9536 17.0527 2.38249C17.1611 1.8422 17.2293 1.29146 17.259 0.738971C17.259 0.250971 16.9968 0 16.3201 0C11.3705 0 0.47644 7.87772 0.47644 19.6246C0.47644 28.0373 3.54133 32.0285 8.85811 37.2152C5.63237 42.402 3.04479 48.5612 3.04479 54.0373C3.04654 58.0023 3.98366 61 6.89819 61C13.021 61 17.6052 48.3085 17.6052 38.9058C17.6053 36.0986 17.4898 33.2925 17.259 30.4948C19.5092 28.1036 23.0059 24.888 23.8206 24.5691C23.4371 25.8371 23.2323 27.1522 23.2122 28.4765C23.2122 33.5988 26.1459 38.4858 31.8369 38.4858C37.1624 38.4858 41.2116 34.1495 41.2116 28.1036C41.2116 27.328 41.1557 26.6448 41.0997 25.9163C43.0146 25.6281 44.8607 24.9944 46.5476 24.0462V36.3089C46.5235 36.5977 46.5617 36.8883 46.6596 37.1612C46.7576 37.4341 46.9129 37.6829 47.1153 37.8909C47.3177 38.0989 47.5624 38.2613 47.833 38.3673C48.1036 38.4732 48.3938 38.5201 48.6841 38.5049C50.1003 38.5049 50.8311 37.5237 51.8627 35.2807C52.7351 33.4106 55.0499 29.2329 56.4574 26.7285C57.5623 24.766 58.1708 23.4955 58.6691 23.4955C58.7809 23.4955 58.9138 23.7935 58.9138 24.5237V34.9635C58.9138 37.766 60.3842 38.5049 61.6588 38.5049C62.2407 38.4762 62.8054 38.2985 63.2985 37.9889C63.7915 37.6794 64.1962 37.2485 64.4736 36.7377C67.6504 32.215 71.0352 26.8505 72.3588 24.5237C72.6105 24.1124 72.9095 23.7952 73.1543 23.7952C73.399 23.7952 73.5197 23.9259 73.5197 24.7294V35.6362C73.5197 37.5882 74.1386 38.5049 75.6667 38.5049C76.303 38.4697 76.9147 38.2477 77.4249 37.8669C77.935 37.4861 78.3209 36.9635 78.534 36.3647C80.5691 32.1592 83.5605 26.5977 84.8456 24.4105C85.1551 23.9259 85.454 23.4763 85.6428 23.4763C85.8299 23.4763 85.9506 23.7761 85.9506 24.5708V34.9443C85.9506 37.7468 87.4139 38.4858 88.7077 38.4858C90.4141 38.4858 91.5209 37.2623 92.6258 35.8593C94.6329 33.2345 97.5772 28.5515 99.3483 25.5799C100.058 26.6727 100.684 27.816 101.224 28.9994C99.7522 30.7667 98.28 32.7378 98.28 34.9077C98.2461 35.3589 98.3039 35.8122 98.4501 36.2405C98.5963 36.6689 98.8277 37.0633 99.1306 37.4003C99.4335 37.7372 99.8016 38.0097 100.213 38.2013C100.624 38.3929 101.07 38.4998 101.523 38.5154C104.336 38.5154 106.905 35.8227 106.905 32.1121C106.858 30.5826 106.541 29.0733 105.968 27.6539C108.424 25.2331 111.433 22.8227 113.646 22.2702L113.645 22.2737ZM51.5182 13.3067C51.5182 4.21249 53.2981 2.80251 53.8523 2.80251C54.7894 2.80251 54.9485 3.40903 54.9485 6.9052C54.8326 10.7681 53.6453 14.5235 51.5182 17.7545V13.3067ZM34.4542 22.0907C34.4461 21.977 34.4627 21.8629 34.5027 21.7562C34.5428 21.6495 34.6054 21.5525 34.6863 21.472C34.7672 21.3915 34.8646 21.3293 34.9717 21.2896C35.0789 21.2499 35.1934 21.2337 35.3074 21.2419C36.0942 21.2419 37.2586 22.0925 37.9334 23.7917C35.6728 23.7917 34.4542 23.3055 34.4542 22.0907ZM122.939 22.0907C122.932 21.9773 122.949 21.8637 122.99 21.7575C123.03 21.6513 123.093 21.5549 123.174 21.4746C123.254 21.3943 123.351 21.3321 123.458 21.292C123.564 21.2519 123.678 21.2348 123.792 21.2419C124.598 21.2419 125.808 22.0925 126.492 23.7917C126.247 23.7917 125.883 23.8667 125.63 23.8667C124.177 23.8667 122.937 23.1661 122.937 22.0925L122.939 22.0907Z" fill="#C8102E"/>
<path d="M172.271 32.215C171.358 32.3178 170.44 32.3579 169.522 32.337C167.124 32.337 165.361 31.4011 165.361 30.0939C165.361 29.2329 165.781 28.738 167.01 28.738C168.97 28.738 170.556 30.0939 172.271 32.215ZM184.326 32.8232C185.544 34.3974 186.892 35.8666 188.358 37.2152C185.114 42.402 182.546 48.5612 182.546 54.0373C182.546 58.0005 183.483 61 186.408 61C192.52 61 197.105 48.3085 197.105 38.9058C197.109 36.0981 196.988 33.2916 196.739 30.4948C199.009 28.1036 202.486 24.888 203.359 24.5691C202.968 25.8362 202.757 27.1513 202.731 28.4765C202.731 33.5988 205.675 38.4858 211.364 38.4858C216.69 38.4858 220.741 34.1495 220.741 28.1036C220.736 27.3727 220.692 26.6426 220.61 25.9163C222.528 25.6303 224.377 24.9965 226.066 24.0462V36.3089C226.041 36.597 226.078 36.8871 226.176 37.1595C226.273 37.432 226.427 37.6804 226.629 37.888C226.831 38.0961 227.075 38.2588 227.345 38.3652C227.615 38.4716 227.904 38.5193 228.194 38.5049C229.619 38.5049 230.36 37.5237 231.39 35.2807C232.243 33.4106 234.569 29.2329 235.985 26.7285C237.081 24.766 237.691 23.4955 238.197 23.4955C238.31 23.4955 238.422 23.7935 238.422 24.5237V34.9635C238.422 37.766 239.894 38.5049 241.179 38.5049C241.76 38.4748 242.324 38.2965 242.816 37.987C243.309 37.6776 243.713 37.2474 243.991 36.7377C247.169 32.215 250.554 26.8505 251.886 24.5237C252.129 24.1124 252.439 23.7952 252.673 23.7952C252.907 23.7952 253.047 23.9259 253.047 24.7294V35.6362C253.047 37.5882 253.649 38.5049 255.185 38.5049C255.823 38.4688 256.435 38.2466 256.947 37.8661C257.459 37.4855 257.847 36.9634 258.063 36.3647C260.09 32.1592 263.079 26.5977 264.364 24.4105C264.674 23.9259 264.983 23.4763 265.17 23.4763C265.357 23.4763 265.48 23.7761 265.48 24.5708V34.9443C265.48 37.7468 266.933 38.4858 268.218 38.4858C269.942 38.4858 271.029 37.2623 272.136 35.8593C274.556 32.5484 276.806 29.1175 278.878 25.5799C279.586 26.6722 280.212 27.8151 280.752 28.9994C279.271 30.7667 277.818 32.7378 277.818 34.9077C277.783 35.3583 277.839 35.8113 277.984 36.2395C278.129 36.6678 278.359 37.0625 278.661 37.4C278.963 37.7374 279.331 38.0102 279.742 38.202C280.153 38.3937 280.599 38.5003 281.052 38.5154C283.864 38.5154 286.434 35.8227 286.434 32.1121C286.383 30.5832 286.066 29.0747 285.497 27.6539C287.999 25.2139 290.999 22.8314 293.202 22.2807C291.941 24.1096 291.286 26.2858 291.328 28.5044C291.328 33.6267 294.261 38.5137 299.963 38.5137C305.465 38.5137 309.338 34.1774 309.338 28.1315C309.376 27.2183 309.32 26.3035 309.168 25.4021C310.336 24.8506 311.427 24.1499 312.413 23.3177C312.885 22.8708 313.478 22.572 314.119 22.4585C314.672 22.4585 314.934 22.8872 314.934 23.6819V35.6449C314.934 37.5969 315.534 38.5137 317.064 38.5137C317.709 38.4785 318.331 38.2577 318.853 37.8779C319.375 37.498 319.776 36.9755 320.006 36.3734C322.013 32.1679 324.957 26.5611 326.232 24.4209C326.541 23.9347 326.784 23.5599 326.973 23.5599C327.16 23.5599 327.347 23.7482 327.347 24.4959V34.0293C327.347 36.7098 328.557 38.4771 331.257 38.4771C333.956 38.4771 335.486 35.7843 337.932 31.6346C338.039 31.4524 338.1 31.2474 338.11 31.0368C338.09 30.8027 337.983 30.5846 337.809 30.4256C337.636 30.2665 337.409 30.178 337.173 30.1776C336.619 30.1776 336.31 30.7283 334.483 32.7396C334.117 33.123 333.741 33.672 333.075 33.672C332.823 33.672 332.645 33.3827 332.645 33.0097V22.326C332.645 19.4573 331.351 18.3 329.701 18.3C328.36 18.3 327.264 18.8507 326.09 20.5605C324.132 23.6577 322.34 26.8556 320.719 30.141C320.588 30.3919 320.399 30.7579 320.279 30.7579C320.156 30.7579 320.1 30.5697 320.1 30.141V22.326C320.1 20.0725 319.49 18.2965 317.1 18.2965C314.71 18.2965 313.303 20.008 311.476 21.2873C310.535 22.0062 309.527 22.6325 308.465 23.1573C307.246 20.0446 304.977 18.4847 303.094 18.4847C302.666 18.4602 302.238 18.525 301.836 18.6751C301.435 18.8251 301.07 19.0571 300.764 19.3562C300.459 19.6562 300.22 20.0161 300.063 20.4131C299.905 20.8101 299.833 21.2354 299.849 21.662C299.837 22.5476 300.107 23.4142 300.622 24.1367C301.136 24.8591 301.867 25.3999 302.709 25.681C303.675 26.0319 304.702 26.1813 305.727 26.1202C306.042 26.1307 306.357 26.1097 306.666 26.054C306.741 26.7651 306.76 27.4814 306.722 28.1942C306.722 31.1849 304.94 34.167 301.631 34.167C298.321 34.167 296.193 30.8765 296.193 27.091C296.101 24.6004 296.902 22.1587 298.452 20.2032C299.006 19.5862 299.437 19.222 299.437 18.6521C299.437 18.3732 299.006 18.2965 298.641 18.2965C296.301 18.4483 294.024 19.1156 291.974 20.2503C289.306 21.7131 286.815 23.4755 284.549 25.5032C283.442 23.0632 282.102 20.923 281.418 19.269C281.164 18.5963 281.005 17.8207 280.481 17.8207C279.954 17.8207 279.862 18.2512 279.542 19.093C278.437 22.326 272.568 31.7932 271.283 33.1108C271.16 33.2886 270.984 33.4751 270.917 33.4751C270.853 33.4751 270.73 33.4193 270.73 33.0446V22.326C270.73 19.4555 269.576 18.2965 267.973 18.2965C266.623 18.2965 265.48 18.849 264.364 20.5587C262.34 23.6157 259.901 28.0356 258.738 30.2595C258.57 30.6342 258.383 30.7562 258.325 30.7562C258.27 30.7562 258.194 30.5122 258.194 30.1392V22.326C258.194 19.4555 257.042 18.2965 255.448 18.2965C254.676 18.2768 253.915 18.4799 253.257 18.8812C252.598 19.2826 252.07 19.8651 251.736 20.5587C249.157 24.895 244.882 31.5492 244.076 32.6437C243.991 32.7964 243.864 32.9225 243.711 33.008C243.597 33.008 243.533 32.886 243.533 32.5862V22.3086C243.533 19.4398 242.37 18.2808 240.775 18.2808C238.564 18.2808 237.345 20.3078 236.548 21.5801C235.45 23.3456 233.988 25.7385 232.798 27.9345C232.009 29.402 231.334 30.7388 231.091 30.7388C230.846 30.7388 230.96 30.1863 230.96 29.1493V20.991C234.88 16.8629 237.108 11.4211 237.203 5.73749C237.203 2.44 235.742 0.608257 233.453 0.608257C229.234 0.608257 225.953 7.20497 225.953 15.0095V21.3552C224.096 22.4925 222.037 23.2607 219.888 23.6175C218.725 20.2049 216.277 18.4307 214.337 18.4865C213.908 18.4614 213.48 18.5258 213.078 18.6757C212.677 18.8257 212.311 19.0577 212.004 19.3569C211.698 19.6562 211.458 20.016 211.3 20.4133C211.141 20.8106 211.068 21.2365 211.085 21.6637C211.085 24.8967 214.253 26.2422 217.075 26.2422H217.984C218.08 26.8888 218.117 27.5424 218.097 28.1959C218.097 31.1867 216.324 34.1687 213.015 34.1687C209.705 34.1687 207.577 30.8399 207.577 27.1032C207.486 24.6142 208.284 22.1737 209.828 20.2154C210.282 19.7971 210.607 19.2586 210.765 18.6643C210.765 18.3837 210.335 18.3087 209.978 18.3087C207.644 18.3087 202.477 21.4284 196.383 27.5424C195.735 22.8031 195.348 18.0322 195.222 13.2509C195.272 9.59792 195.704 5.95883 196.505 2.39294C196.606 1.84954 196.668 1.29978 196.692 0.747686C196.692 0.261429 196.449 0.00871429 195.755 0.00871429C190.795 0.00871429 179.901 7.88643 179.901 19.635C179.752 23.5724 180.752 27.4683 182.78 30.8503C182.21 30.7555 181.632 30.7146 181.055 30.7283C179.388 30.7911 177.735 31.0351 176.123 31.4586V30.2612C176.123 27.6452 175.495 24.0462 174.388 22.7844C174.257 22.6683 174.086 22.6055 173.911 22.6083C173.278 22.6629 172.667 22.8679 172.129 23.2061C171.388 23.5791 170.657 23.9538 170.657 24.1874C170.657 24.3808 170.722 24.5708 170.835 24.7277C171.948 26.059 172.651 27.6821 172.86 29.402C171.879 28.4006 170.698 27.6161 169.393 27.0994C168.088 26.5826 166.689 26.3452 165.286 26.4025C161.609 26.4025 160.496 28.0461 160.496 29.7018C160.496 32.879 164.723 34.458 170.057 34.458C171.127 34.4309 172.19 34.2866 173.227 34.0275C173.227 34.9635 173.35 35.8976 173.35 36.5983C173.35 37.6353 173.526 38.4666 174.212 38.4666C175.243 38.4666 175.86 36.3839 175.983 33.4019C177.776 32.8732 179.627 32.5595 181.495 32.4677C182.448 32.5022 183.395 32.6212 184.326 32.8232ZM194.545 2.318C194.545 2.69097 193.702 4.392 192.596 7.44897C191.084 11.6459 190.316 16.0732 190.326 20.5326C190.326 23.7656 191.143 28.0095 191.809 32.3736L189.858 35.0279C186.746 31.2895 184.768 26.9812 184.768 19.6542C184.768 9.28072 191.087 2.08446 194.33 2.08446C194.48 2.08446 194.545 2.14023 194.545 2.318ZM281.736 31.4202C282.08 32.2969 282.269 33.2276 282.29 34.1687C282.29 35.1029 281.923 36.1207 281.248 36.1207C280.762 36.1207 280.255 35.57 280.255 34.7195C280.459 33.512 280.969 32.3765 281.736 31.4202ZM192.381 35.57C192.891 38.5171 193.204 41.4957 193.318 44.4864C193.318 50.3267 191.358 57.1675 187.983 57.1117C186.698 57.1117 185.602 55.8133 185.536 53.5702C185.357 46.2519 188.845 40.0282 192.333 35.57H192.381ZM231.053 13.3085C231.053 4.21423 232.826 2.81297 233.378 2.81297C234.315 2.81297 234.485 3.42123 234.485 6.91566C234.353 10.7801 233.149 14.5326 231.007 17.7562L231.053 13.3085ZM213.982 22.0925C213.975 21.9792 213.993 21.8659 214.034 21.7599C214.074 21.6539 214.137 21.5577 214.218 21.4776C214.298 21.3975 214.395 21.3352 214.501 21.2949C214.608 21.2546 214.721 21.2371 214.835 21.2437C215.63 21.2437 216.812 22.0942 217.468 23.7935C215.172 23.7935 213.934 23.309 213.934 22.0942H213.982V22.0925ZM302.484 22.0925C302.477 21.979 302.494 21.8653 302.533 21.7587C302.573 21.6521 302.635 21.555 302.715 21.4737C302.796 21.3933 302.894 21.3311 303.001 21.2914C303.108 21.2517 303.223 21.2354 303.337 21.2437C304.124 21.2437 305.353 22.0942 306.028 23.7935C305.785 23.7935 305.418 23.8684 305.166 23.8684C303.655 23.8684 302.437 23.1678 302.437 22.0942H302.484V22.0925Z" fill="#C8102E"/>
</g>
<defs>
<clipPath id="clip0_174_42">
<rect width="535" height="61" fill="white"/>
</clipPath>
</defs>
</svg>
