<svg width="430" height="50" viewBox="0 0 430 50" fill="none" xmlns="http://www.w3.org/2000/svg">
<g clip-path="url(#clip0_174_42)">
<path d="M287.976 31.5914V14.9143H291.246V31.5914H287.976Z" fill="#F8F6F6"/>
<path d="M305.344 31.5914L297.899 19.7557V31.5914H294.705V14.9143H298.683L305.51 25.9457V14.9143H308.698V31.5914H305.344Z" fill="#F8F6F6"/>
<path d="M322.894 31.5914L315.442 19.7557V31.5914H312.247V14.9143H316.225L323.053 25.9457V14.9143H326.247V31.5914H322.894Z" fill="#F8F6F6"/>
<path d="M337.212 14.5543C338.906 14.5228 340.568 15.0193 341.976 15.977C343.384 16.9347 344.469 18.3078 345.087 19.9114C345.496 20.9757 345.688 22.1143 345.65 23.2571C345.665 24.3922 345.457 25.5188 345.04 26.5717C344.623 27.6245 344.004 28.5827 343.22 29.3905C342.435 30.1983 341.501 30.8397 340.471 31.2775C339.44 31.7152 338.335 31.9407 337.218 31.9407C336.102 31.9407 334.996 31.7152 333.966 31.2775C332.936 30.8397 332.001 30.1983 331.217 29.3905C330.433 28.5827 329.814 27.6245 329.397 26.5717C328.979 25.5188 328.772 24.3922 328.786 23.2571C328.749 22.1157 328.941 20.9786 329.35 19.9148C329.758 18.851 330.375 17.8828 331.163 17.0688C331.951 16.2549 332.894 15.6123 333.934 15.18C334.973 14.7478 336.089 14.5349 337.212 14.5543ZM337.212 28.78C339.751 28.78 342.342 26.9957 342.342 23.2343C342.342 19.4729 339.751 17.68 337.212 17.68C334.671 17.68 332.094 19.4729 332.094 23.2343C332.094 26.9957 334.718 28.7886 337.212 28.7886V28.78Z" fill="#F8F6F6"/>
<path d="M357.933 14.9143H361.324L355.235 31.5914H351.95L345.923 14.9143H349.411L353.691 27.31L357.933 14.9143Z" fill="#F8F6F6"/>
<path d="M371.557 27.7771H364.896L363.532 31.6071H360.157L366.448 14.93H370.148L376.395 31.5914H372.922L371.557 27.7771ZM365.959 24.82H370.479L368.22 18.5157L365.959 24.82Z" fill="#F8F6F6"/>
<path d="M383.282 17.9943V31.5914H380.064V17.9943H374.888V14.93H388.452V17.9943H383.282Z" fill="#F8F6F6"/>
<path d="M390.335 31.5914V14.9143H393.576V31.5914H390.335Z" fill="#F8F6F6"/>
<path d="M404.577 14.5543C405.702 14.5322 406.82 14.743 407.862 15.174C408.904 15.6051 409.849 16.2472 410.639 17.0614C411.43 17.8756 412.048 18.8448 412.458 19.9099C412.868 20.9751 413.061 22.1139 413.024 23.2571C413.038 24.3922 412.831 25.5188 412.414 26.5717C411.996 27.6245 411.378 28.5827 410.593 29.3905C409.809 30.1983 408.874 30.8397 407.844 31.2775C406.814 31.7152 405.709 31.9407 404.592 31.9407C403.475 31.9407 402.37 31.7152 401.34 31.2775C400.31 30.8397 399.375 30.1983 398.591 29.3905C397.806 28.5827 397.188 27.6245 396.77 26.5717C396.353 25.5188 396.145 24.3922 396.16 23.2571C396.123 22.1163 396.314 20.9796 396.722 19.9162C397.13 18.8528 397.747 17.8849 398.535 17.0714C399.322 16.2579 400.263 15.6153 401.302 15.1826C402.341 14.7499 403.455 14.5362 404.577 14.5543ZM404.577 28.78C407.123 28.78 409.716 26.9943 409.716 23.2343C409.716 19.4729 407.123 17.68 404.577 17.68C402.031 17.68 399.468 19.4729 399.468 23.2343C399.468 26.9957 402.06 28.7886 404.577 28.7886V28.78Z" fill="#F8F6F6"/>
<path d="M426.264 31.5914L418.811 19.7557V31.5914H415.624V14.9143H419.602L426.43 25.9457V14.9143H429.617V31.5914H426.264Z" fill="#F8F6F6"/>
<path d="M12.0927 1.9C12.0927 2.20571 11.3999 3.6 10.5189 6.10571C9.29345 9.55172 8.6686 13.1886 8.67238 16.8529C8.67238 19.5029 9.31176 22.9814 9.86261 26.5586L8.28875 28.7114C5.79307 25.6086 4.22624 22.1157 4.22624 16.0871C4.22624 7.58429 9.28928 1.68571 11.8889 1.68571C12.0477 1.70857 12.0927 1.75429 12.0927 1.9ZM82.1335 25.7543C82.4132 26.4729 82.5663 27.2343 82.586 28.0071C82.586 28.7729 82.2839 29.6071 81.7429 29.6071C81.3578 29.6071 80.9883 29.1557 80.9883 28.4586C81.1403 27.4736 81.5342 26.5435 82.1335 25.7543ZM10.3151 29.1571C10.7324 31.5714 10.9854 34.0143 11.0683 36.4657C11.0683 41.2529 9.49444 46.86 6.78797 46.8143C5.7481 46.8143 4.86702 45.75 4.82065 43.9114C4.71526 37.9129 7.51869 32.8114 10.3151 29.1571ZM91.3406 18.2571C90.3243 19.7542 89.7973 21.5385 89.8342 23.3571C89.8342 27.5571 92.1936 31.5629 96.7676 31.5629C101.198 31.5629 104.302 28.0086 104.302 23.0514C104.333 22.3027 104.285 21.5527 104.159 20.8143C105.098 20.3626 105.974 19.7887 106.767 19.1071C107.144 18.7353 107.621 18.4849 108.137 18.3871C108.576 18.3871 108.77 18.7386 108.77 19.39V29.1957C108.77 30.7957 109.269 31.5471 110.497 31.5471C111.015 31.5188 111.514 31.3378 111.932 31.0263C112.351 30.7149 112.671 30.2863 112.855 29.7929C114.483 26.3457 116.841 21.75 117.866 19.9957C118.114 19.5957 118.318 19.29 118.453 19.29C118.589 19.29 118.755 19.4443 118.755 20.0571V27.8714C118.755 30.0686 119.743 31.5171 121.897 31.5171C124.158 31.5171 125.288 29.31 127.269 25.9086C127.355 25.7591 127.404 25.5912 127.413 25.4186C127.397 25.2264 127.311 25.0473 127.172 24.9168C127.032 24.7863 126.849 24.714 126.66 24.7143C126.216 24.7143 125.967 25.1657 124.497 26.8143C124.196 27.1286 123.91 27.5786 123.359 27.5786C123.163 27.5786 123.021 27.3414 123.021 27.0357V18.3C123.021 15.9471 121.982 14.9971 120.654 14.9971C119.577 14.9971 118.686 15.45 117.753 16.8514C116.175 19.3915 114.726 22.0126 113.413 24.7043C113.307 24.91 113.164 25.21 113.065 25.21C112.967 25.21 112.924 25.0557 112.924 24.7043V18.3C112.924 16.4529 112.433 14.9971 110.512 14.9971C108.59 14.9971 107.498 16.4 105.99 17.4486C105.241 18.0395 104.436 18.553 103.587 18.9814C102.599 16.43 100.777 15.1514 99.2534 15.1514C98.91 15.1323 98.5664 15.1862 98.2447 15.3097C97.9229 15.4332 97.63 15.6236 97.3847 15.8687C97.1394 16.1138 96.947 16.4082 96.82 16.7331C96.6929 17.058 96.6339 17.4063 96.6467 17.7557C96.6384 18.4821 96.8571 19.1925 97.2712 19.7845C97.6854 20.3765 98.2736 20.8196 98.9513 21.05C99.7186 21.35 100.536 21.4843 101.356 21.4486C101.609 21.4586 101.862 21.4414 102.11 21.3943C102.183 21.9757 102.203 22.5629 102.171 23.1486C102.171 25.6 100.737 28.0443 98.0857 28.0443C95.434 28.0443 93.7014 25.2786 93.7014 22.2143C93.6284 20.1744 94.2686 18.1741 95.5085 16.5686C95.961 16.0629 96.2996 15.7643 96.2996 15.2971C96.2996 15.0671 95.961 15.0057 95.6673 15.0057C93.7865 15.1279 91.9562 15.6745 90.3092 16.6057C88.1873 17.8111 86.2056 19.2554 84.4016 20.9114C83.5121 18.9114 82.4343 17.1586 81.8862 15.8029C81.6965 15.25 81.5532 14.6143 81.1316 14.6143C80.71 14.6143 80.6342 14.9671 80.3784 15.6571C79.5043 18.3 74.8095 26.0443 73.7766 27.1086C73.6783 27.2543 73.5363 27.4086 73.4829 27.4086C73.4295 27.4086 73.3242 27.3614 73.3242 27.0557V18.2986C73.3242 15.9471 72.3911 14.9986 71.125 14.9986C70.0317 14.9986 69.1057 15.45 68.2161 16.8514C66.5959 19.3571 64.6216 22.98 63.6941 24.8029C63.5438 25.11 63.4004 25.21 63.3484 25.21C63.295 25.21 63.2571 25.01 63.2571 24.7043V18.3C63.2571 15.9471 62.3226 14.9971 61.0425 14.9971C60.426 14.986 59.8193 15.1548 59.2943 15.4834C58.7693 15.8121 58.348 16.2868 58.0802 16.8514C56.0244 20.4057 52.5802 25.86 51.9324 26.7571C51.8635 26.8829 51.7613 26.9864 51.6373 27.0557C51.5389 27.0557 51.4869 26.9557 51.4869 26.71V18.2857C51.4869 15.9343 50.5538 14.9843 49.2807 14.9843C47.5101 14.9843 46.5292 16.6457 45.88 17.6886C44.9919 19.1357 43.8158 21.0971 42.8672 22.8971C42.2194 24.1 41.677 25.1957 41.4803 25.1957C41.2835 25.1957 41.3819 24.7429 41.3819 23.8929V17.2057C44.538 13.8235 46.3364 9.364 46.4239 4.70286C46.4239 2 45.2477 0.498571 43.4096 0.498571C40.0034 0.498571 37.3812 5.90571 37.3812 12.3029V17.5043C35.8888 18.4366 34.233 19.0663 32.5051 19.3586C31.572 16.5614 29.6047 15.1071 28.0364 15.1529C27.6929 15.1333 27.3491 15.1869 27.0272 15.3102C26.7052 15.4336 26.4121 15.624 26.1667 15.8691C25.9213 16.1143 25.729 16.4089 25.6021 16.734C25.4752 17.0591 25.4165 17.4076 25.4297 17.7571C25.4297 20.4071 27.9844 21.51 30.2455 21.51H30.8862C30.9691 22.04 31.0015 22.5757 30.9846 23.1114C30.9846 25.5629 29.5513 28.0071 26.9066 28.0071C24.262 28.0071 22.5743 25.2786 22.5743 22.2157C22.4982 20.1751 23.1394 18.1737 24.3828 16.57C24.8269 16.0643 25.1824 15.6129 25.1824 15.2986C25.1824 14.9843 24.8269 15.0071 24.5332 15.0071C22.6642 15.0071 18.5048 17.5643 13.6146 22.5757C13.0943 18.6911 12.7824 14.7805 12.6801 10.8614C12.7208 7.86429 13.0637 4.88 13.7059 1.95286C13.793 1.51 13.8478 1.05857 13.8717 0.605714C13.8717 0.205714 13.6609 0 13.1171 0C9.13892 0 0.382935 6.45714 0.382935 16.0857C0.382935 22.9814 2.8463 26.2529 7.1196 30.5043C4.52696 34.7557 2.44722 39.8043 2.44722 44.2929C2.44862 47.5429 3.20182 50 5.54434 50C10.4655 50 14.15 39.5971 14.15 31.89C14.15 29.589 14.0572 27.289 13.8717 24.9957C15.6803 23.0357 18.4907 20.4 19.1456 20.1386C18.8373 21.178 18.6727 22.2559 18.6565 23.3414C18.6565 27.54 21.0145 31.5457 25.5885 31.5457C29.8689 31.5457 33.1234 27.9914 33.1234 23.0357C33.1234 22.4 33.0784 21.84 33.0334 21.2429C34.5725 21.0066 36.0563 20.4872 37.4121 19.71V29.7614C37.3927 29.9981 37.4234 30.2363 37.5021 30.46C37.5808 30.6836 37.7057 30.8876 37.8684 31.0581C38.0311 31.2286 38.2278 31.3618 38.4452 31.4486C38.6627 31.5354 38.896 31.5739 39.1293 31.5614C40.2675 31.5614 40.8549 30.7571 41.684 28.9186C42.3852 27.3857 44.2458 23.9614 45.377 21.9086C46.2651 20.3 46.7541 19.2586 47.1546 19.2586C47.2445 19.2586 47.3513 19.5029 47.3513 20.1014V28.6586C47.3513 30.9557 48.5331 31.5614 49.5575 31.5614C50.0253 31.5379 50.4791 31.3922 50.8754 31.1385C51.2717 30.8848 51.597 30.5315 51.8199 30.1129C54.3732 26.4057 57.0938 22.0086 58.1575 20.1014C58.3599 19.7643 58.6002 19.5043 58.7969 19.5043C58.9936 19.5043 59.0906 19.6114 59.0906 20.27V29.21C59.0906 30.81 59.588 31.5614 60.8162 31.5614C61.3277 31.5325 61.8193 31.3506 62.2294 31.0385C62.6394 30.7263 62.9495 30.2979 63.1208 29.8071C64.7565 26.36 67.1608 21.8014 68.1937 20.0086C68.4424 19.6114 68.6827 19.2429 68.8344 19.2429C68.9848 19.2429 69.0818 19.4886 69.0818 20.14V28.6429C69.0818 30.94 70.2579 31.5457 71.2978 31.5457C72.6693 31.5457 73.5588 30.5429 74.4469 29.3929C76.0601 27.2414 78.4265 23.4029 79.85 20.9671C80.4206 21.8629 80.9236 22.8 81.3578 23.77C80.1746 25.2186 78.9914 26.8343 78.9914 28.6129C78.9642 28.9827 79.0106 29.3543 79.1281 29.7054C79.2456 30.0565 79.4317 30.3798 79.6751 30.656C79.9186 30.9321 80.2144 31.1555 80.5448 31.3125C80.8753 31.4696 81.2336 31.5572 81.5981 31.57C83.8592 31.57 85.9234 29.3629 85.9234 26.3214C85.8862 25.0677 85.6312 23.8306 85.1702 22.6671C87.1446 20.6829 89.563 18.7071 91.342 18.2543L91.3406 18.2571ZM41.4072 10.9071C41.4072 3.45286 42.8377 2.29714 43.2832 2.29714C44.0364 2.29714 44.1642 2.79429 44.1642 5.66C44.0711 8.82631 43.1168 11.9045 41.4072 14.5529V10.9071ZM27.6922 18.1071C27.6857 18.014 27.699 17.9204 27.7312 17.833C27.7633 17.7455 27.8137 17.666 27.8787 17.6C27.9437 17.534 28.022 17.4831 28.1081 17.4505C28.1942 17.418 28.2863 17.4046 28.3779 17.4114C29.0103 17.4114 29.9461 18.1086 30.4886 19.5014C28.6716 19.5014 27.6922 19.1029 27.6922 18.1071ZM98.8108 18.1071C98.8052 18.0142 98.8192 17.9211 98.8517 17.834C98.8842 17.747 98.9345 17.6679 98.9994 17.6021C99.0642 17.5363 99.1421 17.4853 99.2278 17.4524C99.3135 17.4196 99.4051 17.4056 99.4965 17.4114C100.144 17.4114 101.117 18.1086 101.666 19.5014C101.469 19.5014 101.177 19.5629 100.973 19.5629C99.8057 19.5629 98.8094 18.9886 98.8094 18.1086L98.8108 18.1071Z" fill="#C8102E"/>
<path d="M138.461 26.4057C137.727 26.49 136.989 26.5229 136.252 26.5057C134.324 26.5057 132.907 25.7386 132.907 24.6671C132.907 23.9614 133.245 23.5557 134.232 23.5557C135.808 23.5557 137.082 24.6671 138.461 26.4057ZM148.15 26.9043C149.129 28.1946 150.213 29.3988 151.39 30.5043C148.784 34.7557 146.719 39.8043 146.719 44.2929C146.719 47.5414 147.472 50 149.823 50C154.736 50 158.421 39.5971 158.421 31.89C158.424 29.5886 158.326 27.2882 158.127 24.9957C159.951 23.0357 162.746 20.4 163.447 20.1386C163.134 21.1772 162.964 22.2552 162.943 23.3414C162.943 27.54 165.309 31.5457 169.882 31.5457C174.162 31.5457 177.418 27.9914 177.418 23.0357C177.414 22.4366 177.379 21.8382 177.313 21.2429C178.854 21.0084 180.341 20.4889 181.698 19.71V29.7614C181.678 29.9975 181.708 30.2353 181.786 30.4586C181.864 30.6819 181.988 30.8856 182.151 31.0557C182.313 31.2263 182.509 31.3597 182.726 31.4469C182.943 31.5341 183.175 31.5732 183.408 31.5614C184.554 31.5614 185.149 30.7571 185.977 28.9186C186.663 27.3857 188.532 23.9614 189.67 21.9086C190.551 20.3 191.042 19.2586 191.448 19.2586C191.539 19.2586 191.629 19.5029 191.629 20.1014V28.6586C191.629 30.9557 192.812 31.5614 193.845 31.5614C194.312 31.5367 194.765 31.3905 195.161 31.1369C195.556 30.8833 195.881 30.5307 196.105 30.1129C198.659 26.4057 201.38 22.0086 202.451 20.1014C202.646 19.7643 202.895 19.5043 203.083 19.5043C203.271 19.5043 203.384 19.6114 203.384 20.27V29.21C203.384 30.81 203.867 31.5614 205.102 31.5614C205.615 31.5318 206.107 31.3497 206.518 31.0378C206.929 30.7259 207.241 30.2979 207.415 29.8071C209.044 26.36 211.447 21.8014 212.48 20.0086C212.728 19.6114 212.977 19.2429 213.128 19.2429C213.278 19.2429 213.376 19.4886 213.376 20.14V28.6429C213.376 30.94 214.544 31.5457 215.577 31.5457C216.962 31.5457 217.836 30.5429 218.726 29.3929C220.671 26.679 222.479 23.8668 224.145 20.9671C224.714 21.8625 225.217 22.7993 225.651 23.77C224.461 25.2186 223.293 26.8343 223.293 28.6129C223.265 28.9822 223.31 29.3535 223.427 29.7045C223.543 30.0556 223.728 30.3791 223.97 30.6557C224.213 30.9323 224.509 31.1559 224.839 31.3131C225.17 31.4702 225.528 31.5576 225.893 31.57C228.152 31.57 230.218 29.3629 230.218 26.3214C230.177 25.0682 229.922 23.8317 229.465 22.6671C231.476 20.6671 233.887 18.7143 235.658 18.2629C234.644 19.762 234.118 21.5457 234.151 23.3643C234.151 27.5629 236.509 31.5686 241.092 31.5686C245.514 31.5686 248.626 28.0143 248.626 23.0586C248.658 22.3101 248.612 21.5603 248.49 20.8214C249.429 20.3693 250.305 19.795 251.098 19.1129C251.478 18.7465 251.955 18.5016 252.47 18.4086C252.914 18.4086 253.125 18.76 253.125 19.4114V29.2171C253.125 30.8171 253.607 31.5686 254.836 31.5686C255.355 31.5398 255.854 31.3588 256.274 31.0474C256.694 30.7361 257.016 30.3078 257.201 29.8143C258.814 26.3671 261.181 21.7714 262.205 20.0171C262.454 19.6186 262.649 19.3114 262.801 19.3114C262.951 19.3114 263.102 19.4657 263.102 20.0786V27.8929C263.102 30.09 264.074 31.5386 266.244 31.5386C268.413 31.5386 269.643 29.3314 271.609 25.93C271.695 25.7807 271.744 25.6126 271.752 25.44C271.736 25.2481 271.65 25.0694 271.51 24.939C271.371 24.8086 271.189 24.7361 270.999 24.7357C270.554 24.7357 270.305 25.1871 268.836 26.8357C268.543 27.15 268.241 27.6 267.705 27.6C267.503 27.6 267.36 27.3629 267.36 27.0571V18.3C267.36 15.9486 266.32 15 264.993 15C263.915 15 263.034 15.4514 262.091 16.8529C260.518 19.3915 259.077 22.0128 257.775 24.7057C257.669 24.9114 257.517 25.2114 257.42 25.2114C257.322 25.2114 257.277 25.0571 257.277 24.7057V18.3C257.277 16.4529 256.787 14.9971 254.866 14.9971C252.945 14.9971 251.814 16.4 250.345 17.4486C249.589 18.0379 248.779 18.5512 247.925 18.9814C246.946 16.43 245.122 15.1514 243.608 15.1514C243.264 15.1313 242.92 15.1844 242.598 15.3074C242.275 15.4304 241.981 15.6206 241.735 15.8657C241.49 16.1116 241.299 16.4067 241.172 16.7321C241.046 17.0575 240.987 17.4061 241 17.7557C240.99 18.4817 241.208 19.192 241.621 19.7841C242.034 20.3763 242.622 20.8196 243.299 21.05C244.075 21.3376 244.9 21.4601 245.725 21.41C245.978 21.4186 246.231 21.4014 246.479 21.3557C246.54 21.9386 246.555 22.5257 246.524 23.11C246.524 25.5614 245.092 28.0057 242.432 28.0057C239.772 28.0057 238.062 25.3086 238.062 22.2057C237.988 20.1643 238.632 18.1629 239.878 16.56C240.323 16.0543 240.669 15.7557 240.669 15.2886C240.669 15.06 240.323 14.9971 240.029 14.9971C238.149 15.1216 236.319 15.6685 234.671 16.5986C232.527 17.7976 230.524 19.2422 228.703 20.9043C227.814 18.9043 226.736 17.15 226.186 15.7943C225.983 15.2429 225.855 14.6071 225.433 14.6071C225.01 14.6071 224.936 14.96 224.679 15.65C223.79 18.3 219.073 26.06 218.04 27.14C217.942 27.2857 217.8 27.4386 217.747 27.4386C217.695 27.4386 217.596 27.3929 217.596 27.0857V18.3C217.596 15.9471 216.669 14.9971 215.38 14.9971C214.295 14.9971 213.376 15.45 212.48 16.8514C210.853 19.3571 208.892 22.98 207.958 24.8029C207.823 25.11 207.672 25.21 207.626 25.21C207.581 25.21 207.521 25.01 207.521 24.7043V18.3C207.521 15.9471 206.595 14.9971 205.313 14.9971C204.693 14.981 204.081 15.1474 203.552 15.4764C203.023 15.8054 202.598 16.2829 202.33 16.8514C200.257 20.4057 196.821 25.86 196.173 26.7571C196.105 26.8823 196.003 26.9857 195.88 27.0557C195.788 27.0557 195.736 26.9557 195.736 26.71V18.2857C195.736 15.9343 194.802 14.9843 193.52 14.9843C191.743 14.9843 190.763 16.6457 190.123 17.6886C189.24 19.1357 188.065 21.0971 187.108 22.8971C186.475 24.1 185.932 25.1957 185.737 25.1957C185.54 25.1957 185.631 24.7429 185.631 23.8929V17.2057C188.782 13.822 190.572 9.36154 190.65 4.70286C190.65 2 189.475 0.498571 187.635 0.498571C184.245 0.498571 181.607 5.90571 181.607 12.3029V17.5043C180.115 18.4365 178.46 19.0662 176.732 19.3586C175.798 16.5614 173.83 15.1071 172.271 15.1529C171.926 15.1323 171.582 15.1851 171.259 15.308C170.936 15.4309 170.642 15.6211 170.396 15.8663C170.15 16.1116 169.957 16.4066 169.83 16.7322C169.702 17.0579 169.643 17.407 169.657 17.7571C169.657 20.4071 172.203 21.51 174.471 21.51H175.202C175.279 22.04 175.309 22.5757 175.293 23.1114C175.293 25.5629 173.868 28.0071 171.208 28.0071C168.548 28.0071 166.838 25.2786 166.838 22.2157C166.765 20.1756 167.406 18.1751 168.646 16.57C169.012 16.2271 169.273 15.7857 169.4 15.2986C169.4 15.0686 169.054 15.0071 168.767 15.0071C166.891 15.0071 162.739 17.5643 157.84 22.5757C157.32 18.6911 157.009 14.7805 156.907 10.8614C156.948 7.86714 157.295 4.88429 157.939 1.96143C158.02 1.51602 158.07 1.06539 158.089 0.612857C158.089 0.214286 157.894 0.00714286 157.336 0.00714286C153.349 0.00714286 144.593 6.46428 144.593 16.0943C144.474 19.3217 145.278 22.515 146.908 25.2871C146.449 25.2094 145.985 25.1759 145.521 25.1871C144.181 25.2386 142.852 25.4386 141.556 25.7857V24.8043C141.556 22.66 141.052 19.71 140.162 18.6757C140.057 18.5806 139.92 18.5291 139.779 18.5314C139.27 18.5762 138.779 18.7442 138.347 19.0214C137.751 19.3271 137.164 19.6343 137.164 19.8257C137.164 19.9843 137.216 20.14 137.307 20.2686C138.201 21.3599 138.766 22.6903 138.934 24.1C138.146 23.2792 137.196 22.6362 136.148 22.2126C135.099 21.789 133.974 21.5944 132.847 21.6414C129.892 21.6414 128.997 22.9886 128.997 24.3457C128.997 26.95 132.394 28.2443 136.682 28.2443C137.541 28.2221 138.395 28.1037 139.229 27.8914C139.229 28.6586 139.328 29.4243 139.328 29.9986C139.328 30.8486 139.47 31.53 140.021 31.53C140.85 31.53 141.346 29.8229 141.444 27.3786C142.886 26.9452 144.373 26.6882 145.875 26.6129C146.64 26.6412 147.401 26.7387 148.15 26.9043ZM156.363 1.9C156.363 2.20571 155.686 3.6 154.797 6.10571C153.581 9.54585 152.964 13.1747 152.973 16.83C152.973 19.48 153.629 22.9586 154.164 26.5357L152.596 28.7114C150.095 25.6471 148.505 22.1157 148.505 16.11C148.505 7.60714 153.584 1.70857 156.191 1.70857C156.311 1.70857 156.363 1.75429 156.363 1.9ZM226.442 25.7543C226.719 26.4729 226.871 27.2357 226.888 28.0071C226.888 28.7729 226.592 29.6071 226.05 29.6071C225.659 29.6071 225.252 29.1557 225.252 28.4586C225.416 27.4689 225.826 26.5381 226.442 25.7543ZM154.624 29.1557C155.034 31.5714 155.286 34.0129 155.377 36.4643C155.377 41.2514 153.802 46.8586 151.09 46.8129C150.057 46.8129 149.176 45.7486 149.122 43.91C148.979 37.9114 151.782 32.81 154.586 29.1557H154.624ZM185.706 10.9086C185.706 3.45429 187.131 2.30571 187.575 2.30571C188.328 2.30571 188.464 2.80429 188.464 5.66857C188.359 8.83618 187.391 11.912 185.669 14.5543L185.706 10.9086ZM171.985 18.1086C171.98 18.0157 171.994 17.9228 172.027 17.836C172.06 17.7491 172.11 17.6703 172.175 17.6046C172.24 17.5389 172.317 17.4879 172.403 17.4548C172.488 17.4218 172.58 17.4075 172.671 17.4129C173.31 17.4129 174.26 18.11 174.787 19.5029C172.942 19.5029 171.947 19.1057 171.947 18.11H171.985V18.1086ZM243.118 18.1086C243.112 18.0155 243.126 17.9223 243.158 17.835C243.19 17.7476 243.239 17.6681 243.303 17.6014C243.369 17.5355 243.447 17.4845 243.533 17.452C243.62 17.4194 243.712 17.4061 243.804 17.4129C244.436 17.4129 245.424 18.11 245.966 19.5029C245.771 19.5029 245.476 19.5643 245.274 19.5643C244.059 19.5643 243.08 18.99 243.08 18.11H243.118V18.1086Z" fill="#C8102E"/>
</g>
<defs>
<clipPath id="clip0_174_42">
<rect width="430" height="50" fill="white"/>
</clipPath>
</defs>
</svg>
