<svg width="416" height="450" viewBox="0 0 416 450" fill="none" xmlns="http://www.w3.org/2000/svg">
<g opacity="0.5">
<path d="M18.346 319.406C89.352 248.4 165.615 324.387 242.001 248.001C318.387 171.615 211.788 102.602 318.788 25.0381M107.5 397.5C229 301 91.9989 245.499 168 175C235.377 112.501 293.001 220.501 391.001 112.501" stroke="black" stroke-width="3" stroke-dasharray="12 12"/>
<circle cx="129" cy="135" r="78" fill="#F8F7F6" stroke="black" stroke-width="3"/>
<path d="M102 176C102 176.552 101.552 177 101 177C100.448 177 100 176.552 100 176C100 175.448 100.448 175 101 175C101.552 175 102 175.448 102 176Z" fill="#323438"/>
<path d="M170 143C170 144.105 168.5 146.5 167 146C165.5 145.5 166 144.105 166 143C166 141.895 166.895 141 168 141C169.105 141 170 141.895 170 143Z" fill="#323438"/>
<path d="M131.5 145.5C131.067 144.85 131.067 144.15 131.5 143.5C132.052 142.672 133.328 147.052 132.5 146.5C132.27 146.347 131.653 145.73 131.5 145.5Z" fill="#323438"/>
<path d="M134 171C133.773 170.636 133.417 169.901 133 170C132.479 170.124 132.53 170.589 132.717 171.091C132.901 171.588 133.5 172.677 134 172.5C134.559 172.303 134.314 171.503 134 171Z" fill="#323438"/>
<path d="M110.374 135.413C109.858 131.331 114.652 125.677 117.156 127.414C119.769 129.227 117.313 138.608 114.092 139.119C112.099 139.436 110.707 138.048 110.374 135.413Z" stroke="black" stroke-width="2"/>
<path d="M90.4999 106C87.6697 105.355 83.3049 103.356 84.9999 101C86.4385 99 88.5 100.857 90.4999 100C94 98.5 94.9449 99.5183 98 98.5C101 97.5 105.333 98.5 106 99.5C107 101 105.376 103.383 103.5 104.5C101.48 105.703 99.3437 104.811 97 105C94.1661 105.228 93.272 106.631 90.4999 106Z" stroke="black" stroke-width="2"/>
<path d="M156.641 98.1052C163.427 100.631 168.404 107.368 164.784 109.473C162.522 110.789 157.093 109.473 152.116 107.368C147.14 105.263 142.372 103.158 143.068 98.9473C143.764 94.7369 149.854 95.579 156.641 98.1052Z" stroke="black" stroke-width="2"/>
<path d="M107.5 171C109.501 166 114 153.5 107.5 154.5C101 155.5 101.811 159.831 99.5002 165C96.8691 170.885 95.4998 181.15 99 181.5C102.5 181.85 105.5 176 107.5 171Z" stroke="black" stroke-width="2"/>
<path d="M136.461 105.17C138.386 108.562 141.044 128.423 136.461 129.5C131.419 130.685 128.533 118.706 126.5 110.5C124.467 102.294 117.668 88.9718 123.627 86.272C129.585 83.5722 134.536 101.778 136.461 105.17Z" stroke="black" stroke-width="2"/>
<path d="M102 176C102 176.552 101.552 177 101 177C100.448 177 100 176.552 100 176C100 175.448 100.448 175 101 175C101.552 175 102 175.448 102 176Z" stroke="black" stroke-width="2"/>
<path d="M170 143C170 144.105 168.5 146.5 167 146C165.5 145.5 166 144.105 166 143C166 141.895 166.895 141 168 141C169.105 141 170 141.895 170 143Z" stroke="black" stroke-width="2"/>
<path d="M131.5 145.5C131.067 144.85 131.067 144.15 131.5 143.5C132.052 142.672 133.328 147.052 132.5 146.5C132.27 146.347 131.653 145.73 131.5 145.5Z" stroke="black" stroke-width="2"/>
<path d="M156 163C153.674 161.449 153.228 160.812 151 162.5C148.953 164.051 148.858 165.7 150 168C151.243 170.504 155 173 157 170.5C158.985 168.018 158 164.333 156 163Z" stroke="black" stroke-width="2"/>
<path d="M93.5002 152C93.5002 149.204 92.4999 147.5 89.4999 146.5C87.9999 146 85.5 147.5 85.5 150.5C85.5 152.562 85.2987 156.5 88.5002 156.5C92.0002 156.5 93.5002 154 93.5002 152Z" stroke="black" stroke-width="2"/>
<path d="M91.0973 127.253C93.2729 125.997 94.0696 124.784 93.5 122C93.2151 120.608 91.0047 119.006 88.6702 120.354C87.0659 121.28 83.9107 122.893 85.3491 125.384C86.9216 128.108 89.541 128.152 91.0973 127.253Z" stroke="black" stroke-width="2"/>
<path d="M135.5 164.231C139 171.731 141 175.5 137.5 178.5C134 181.5 127 169.625 125.5 164.731C124 159.838 124 152.151 127 151.231C130 150.312 132 156.731 135.5 164.231Z" stroke="black" stroke-width="2"/>
<path d="M134 171C133.773 170.636 133.417 169.901 133 170C132.479 170.124 132.53 170.589 132.717 171.091C132.901 171.588 133.5 172.677 134 172.5C134.559 172.303 134.314 171.503 134 171Z" stroke="black" stroke-width="2"/>
<path d="M175.5 142C171.934 151.228 160.995 157.76 153.525 154.874C146.055 151.987 143.805 142.47 146.457 132.939C149.5 122 161.53 119.613 169 122.5C176.47 125.387 179.066 132.772 175.5 142Z" stroke="black" stroke-width="2"/>
<path d="M125.552 132.247C124.168 141.935 122.322 144.704 110.075 145.415C101.099 144.704 100.176 135.015 102.945 125.787C106.174 117.482 113.914 111.946 118.17 112.869C124.147 114.165 126.013 124.403 125.552 132.247Z" stroke="black" stroke-width="2"/>
</g>
</svg>
