<svg width="711" height="448" viewBox="0 0 711 448" fill="none" xmlns="http://www.w3.org/2000/svg">
<g clip-path="url(#clip0_215_53)">
<rect width="711" height="448" fill="white"/>
<g opacity="0.25">
<path d="M316.5 333L317.048 331.604L316.5 333ZM368.887 455.995C368.332 456.609 368.38 457.558 368.995 458.113C369.609 458.668 370.558 458.62 371.113 458.005L368.887 455.995ZM203.5 90.5L204.341 91.7419L203.5 90.5ZM329.297 39.5525L328.217 38.5114L329.297 39.5525ZM335.045 -37.0764C334.45 -37.6534 333.501 -37.6392 332.924 -37.0447C332.347 -36.4502 332.361 -35.5006 332.955 -34.9236L335.045 -37.0764ZM583.788 469.74C583.917 470.558 584.685 471.117 585.503 470.987C586.322 470.858 586.88 470.09 586.751 469.272L583.788 469.74ZM611.5 366L610.264 365.15L610.264 365.15L611.5 366ZM527.883 352.995L526.699 353.916L526.699 353.916L527.883 352.995ZM588.008 409.784L589.435 410.247L588.008 409.784ZM499 306.647L500.35 305.993L500.35 305.993L499 306.647ZM137.058 176.933C172.17 187.766 193.614 200.151 207.858 213.252C222.091 226.343 229.239 240.239 235.631 254.348C242.009 268.428 247.681 282.862 258.965 296.525C270.284 310.231 287.181 323.101 315.952 334.396L317.048 331.604C288.648 320.454 272.21 307.851 261.278 294.615C250.311 281.335 244.817 267.357 238.363 253.11C231.922 238.892 224.573 224.55 209.889 211.044C195.218 197.55 173.33 184.984 137.942 174.067L137.058 176.933ZM315.952 334.396C349.324 347.498 369.366 370.437 377.649 393.813C385.947 417.234 382.435 440.995 368.887 455.995L371.113 458.005C385.565 442.005 389.053 417.016 380.476 392.812C371.884 368.563 351.176 345.002 317.048 331.604L315.952 334.396ZM-27 255.5C-13.5967 255.5 16.2027 251.588 48.4233 239.783C80.6474 227.978 115.471 208.214 138.711 176.385L136.289 174.615C113.529 205.786 79.3123 225.272 47.3913 236.967C15.4667 248.662 -13.9838 252.5 -27 252.5V255.5ZM138.711 176.385C152.231 157.869 161.056 141.712 170.178 127.88C179.34 113.989 188.958 102.163 204.341 91.7419L202.659 89.2581C186.83 99.9811 176.955 112.156 167.674 126.228C158.354 140.36 149.785 156.131 136.289 174.615L138.711 176.385ZM204.341 91.7419C211.902 86.62 221.542 82.8597 232.336 79.609C243.139 76.3555 254.93 73.6579 266.849 70.584C290.541 64.4741 314.647 56.9109 330.377 40.5935L328.217 38.5114C313.15 54.1416 289.858 61.5521 266.1 67.6791C254.295 70.7236 242.349 73.4603 231.471 76.7364C220.583 80.0153 210.598 83.88 202.659 89.2581L204.341 91.7419ZM330.377 40.5935C340.77 29.8114 346.306 14.6859 347.097 0.186101C347.887 -14.2844 343.96 -28.4235 335.045 -37.0764L332.955 -34.9236C341.04 -27.0765 344.863 -13.9185 344.102 0.0225908C343.342 13.9344 338.026 28.3351 328.217 38.5114L330.377 40.5935ZM612.736 366.85C625.883 347.742 657.324 330.966 715.743 321.032L715.24 318.074C656.676 328.033 624.145 344.975 610.264 365.15L612.736 366.85ZM588.865 408.552C566.005 392.653 545.825 373.594 529.066 352.073L526.699 353.916C543.647 375.681 564.05 394.947 587.152 411.015L588.865 408.552ZM586.751 469.272C582.89 444.839 584.065 426.797 589.435 410.247L586.582 409.321C581.031 426.425 579.873 444.963 583.788 469.74L586.751 469.272ZM589.435 410.247C594.116 395.82 602.014 382.433 612.736 366.85L610.264 365.15C599.496 380.802 591.399 394.475 586.582 409.321L589.435 410.247ZM475.5 198C475.5 116.704 515.134 44.0133 577.418 -4.15388L575.582 -6.52702C512.633 42.1545 472.5 115.69 472.5 198H475.5ZM500.35 305.993C484.385 273.054 475.5 236.496 475.5 198H472.5C472.5 236.964 481.495 273.968 497.65 307.301L500.35 305.993ZM497.584 306.153L436.084 482.506L438.916 483.494L500.416 307.141L497.584 306.153ZM529.066 352.073C525.538 347.542 522.161 342.901 518.942 338.158L516.46 339.842C519.715 344.64 523.131 349.334 526.699 353.916L529.066 352.073ZM518.942 338.158C511.979 327.895 505.758 317.151 500.35 305.993L497.65 307.301C503.123 318.592 509.416 329.461 516.46 339.842L518.942 338.158ZM471.925 483.467L519.126 339.467L516.276 338.533L469.075 482.533L471.925 483.467Z" fill="black"/>
</g>
<path d="M430.248 198H280.752C279.552 198 278.415 198.539 277.655 199.468L260.589 220.335C259.083 222.176 259.083 224.824 260.589 226.665L277.655 247.532C278.415 248.461 279.552 249 280.752 249H430.248C431.448 249 432.585 248.461 433.345 247.532L450.411 226.665C451.917 224.824 451.917 222.176 450.411 220.335L433.345 199.468C432.585 198.539 431.448 198 430.248 198Z" fill="#B88E54" stroke="#323438" stroke-width="3"/>
<path d="M304.164 230V214.6H307.684V226.788H315.582V230H304.164ZM324.973 230.352C320.133 230.352 317.119 227.25 317.119 222.3C317.119 217.35 320.133 214.248 324.973 214.248C329.769 214.248 332.827 217.35 332.827 222.3C332.827 227.25 329.769 230.352 324.973 230.352ZM320.639 222.3C320.639 225.402 322.157 227.14 324.973 227.14C327.723 227.14 329.307 225.402 329.307 222.3C329.307 219.198 327.745 217.46 324.973 217.46C322.179 217.46 320.639 219.198 320.639 222.3ZM334.23 230V229.45L340.06 214.6H344.13L349.96 229.45V230H346.44L345.01 226.348H339.18L337.75 230H334.23ZM340.456 223.136H343.734L342.106 218.934L340.456 223.136ZM352.289 230V214.6H358.273C363.157 214.6 365.885 217.35 365.885 222.3C365.885 227.25 363.157 230 358.273 230H352.289ZM355.809 226.788H358.273C360.891 226.788 362.365 225.182 362.365 222.3C362.365 219.418 360.891 217.812 358.273 217.812H355.809V226.788ZM368.768 230V214.6H372.288V230H368.768ZM376.073 230V214.6H379.593L386.413 224.126V214.6H389.933V230H386.413L379.593 220.474V230H376.073ZM400.531 230.352C395.603 230.352 392.809 227.25 392.809 222.3C392.809 217.35 395.625 214.248 400.399 214.248C404.007 214.248 406.757 216.03 407.439 219.066L404.029 219.66C403.809 218.23 402.269 217.46 400.421 217.46C397.671 217.46 396.329 219.198 396.329 222.3C396.329 225.402 397.671 227.14 400.443 227.14C402.379 227.14 403.589 226.282 404.117 224.764H400.663V221.86H407.769V222.784C407.769 227.844 404.953 230.352 400.531 230.352Z" fill="white"/>
</g>
<defs>
<clipPath id="clip0_215_53">
<rect width="711" height="448" fill="white"/>
</clipPath>
</defs>
</svg>
